<svg width="239" height="209" viewBox="0 0 239 209" fill="none" xmlns="http://www.w3.org/2000/svg">
<path d="M0 41.9025C3.56881 42.9029 18.9923 39.0017 52.1356 15.3944C93.5648 -14.1146 140.114 4.39104 163.855 24.3972C187.595 44.4033 197.371 54.4063 220.645 55.4067C231.955 55.8927 236.738 55.5423 238.334 55.0055V75.4128C230.111 78.5804 208.532 78.9117 191.319 71.9117C173.634 64.7198 170.268 49.1425 153.148 39.9019C126.348 25.436 105.27 16.3806 76.3414 26.3978C67.2878 29.5328 62.8095 32.9988 54.4631 37.9013C45.8733 42.9467 41.8358 47.2655 33.0503 51.9056C21.1318 58.2003 11.6374 67.9105 0.930993 63.9093C0.186199 58.7077 0 47.0708 0 41.9025Z" fill="white"/>
<path d="M0 106.312C3.56881 107.312 18.9923 103.411 52.1356 79.8038C93.5648 50.2948 140.114 68.8005 163.855 88.8066C187.595 108.813 197.371 118.816 220.645 119.816C231.955 120.302 236.738 119.952 238.334 119.415V139.822C230.111 142.99 208.532 143.321 191.319 136.321C173.634 129.129 170.268 113.552 153.148 104.311C126.348 89.8455 105.27 80.79 76.3414 90.8072C67.2878 93.9422 62.8095 97.4082 54.4631 102.311C45.8733 107.356 41.8358 111.675 33.0503 116.315C21.1318 122.61 11.6374 132.32 0.930993 128.319C0.186199 123.117 0 111.48 0 106.312Z" fill="white"/>
<path d="M0 173.333C3.56881 174.333 18.9923 170.432 52.1356 146.824C93.5648 117.315 140.114 135.821 163.855 155.827C187.595 175.833 197.371 185.836 220.645 186.837C231.955 187.323 236.738 186.972 238.334 186.435V206.843C230.111 210.01 208.532 210.342 191.319 203.342C173.634 196.15 170.268 180.573 153.148 171.332C126.348 156.866 105.27 147.811 76.3414 157.828C67.2878 160.963 62.8095 164.429 54.4631 169.331C45.8733 174.377 41.8358 178.696 33.0503 183.336C21.1318 189.63 11.6374 199.34 0.930993 195.339C0.186199 190.138 0 178.501 0 173.333Z" fill="white"/>
</svg>
