                <svg width="307" height="231" viewBox="0 0 307 231" fill="none" xmlns="http://www.w3.org/2000/svg">
                    <path opacity="0.3" d="M111.838 42.2566C80.5495 49.9955 55.8171 74.4381 48.5649 105.915C43.2099 129.323 47.907 153.421 84.2062 162.232C162.688 181.212 247.457 174.952 257.609 137C267.76 99.0493 248.918 33.9354 204.059 29.9051C178.492 27.6141 140.135 35.2533 111.838 42.2566Z" fill="#E6E6E6" />
                    <path opacity="0.45" d="M153.5 216.527C202.742 216.527 242.661 212.822 242.661 208.252C242.661 203.682 202.742 199.977 153.5 199.977C104.258 199.977 64.3394 203.682 64.3394 208.252C64.3394 212.822 104.258 216.527 153.5 216.527Z" fill="#E6E6E6" />
                    <path d="M151.71 120.473C144.6 119.174 137.85 116.369 131.912 112.244C129.976 114.274 128.003 116.259 126.128 118.373C125.172 119.438 124.499 119.323 123.55 118.373C120.383 115.15 117.175 111.97 113.927 108.834C112.986 107.922 113.123 107.34 113.988 106.497C116 104.535 117.928 102.482 119.779 100.582C118.126 97.3481 116.275 94.176 114.852 90.8276C113.77 88.0597 112.898 85.2141 112.244 82.3148C111.968 81.2344 111.555 80.9739 110.545 80.9969C108.105 81.0582 105.665 80.9969 103.217 81.0429C102.039 81.0429 101.633 80.5985 101.648 79.4415C101.689 74.8441 101.689 70.2697 101.648 65.7184C101.648 64.5307 102.107 64.1246 103.255 64.1859C105.749 64.2472 108.25 64.2549 110.744 64.1859C111.211 64.1859 111.991 63.7032 112.068 63.3354C113.455 56.6469 116.188 50.3117 120.1 44.7161C118.058 42.7009 116.061 40.6551 113.98 38.7166C113.039 37.8507 113.062 37.2761 113.98 36.4179C117.265 33.2355 120.511 30.0174 123.719 26.7635C124.598 25.867 125.249 25.8823 126.06 26.7635C127.964 28.8399 129.938 30.8474 131.896 32.8933C133.426 31.9815 134.65 31.1846 135.928 30.4567C140.393 27.879 145.256 26.0662 150.318 25.0931C151.396 24.8862 151.848 24.5031 151.764 23.3384C151.656 20.9478 151.764 18.5495 151.718 16.1589C151.718 14.9942 152.108 14.5651 153.301 14.5805C157.891 14.6264 162.542 14.6341 167.155 14.5805C168.448 14.5805 168.823 15.0709 168.8 16.2815C168.747 19.0399 168.8 21.806 168.8 24.7559C175.903 26.0463 182.644 28.853 188.568 32.9852C190.557 30.9011 192.538 28.9089 194.428 26.8554C195.338 25.8593 195.996 25.9283 196.906 26.8554C200.073 30.0736 203.263 33.2687 206.522 36.4026C207.509 37.3527 207.41 37.935 206.476 38.8392C204.48 40.7394 202.582 42.7469 200.525 44.8387C201.037 45.6586 201.603 46.5397 202.146 47.4209C205.093 52.1175 207.166 57.3093 208.266 62.7454C208.534 64.071 209.07 64.3238 210.271 64.2779C212.566 64.1936 214.861 64.2779 217.117 64.2319C218.387 64.1936 218.923 64.5843 218.908 65.9559C218.839 70.4153 218.839 74.8901 218.908 79.3572C218.908 80.6598 218.51 81.1731 217.179 81.1348C214.685 81.0582 212.183 81.0659 209.697 81.1348C209.427 81.1788 209.173 81.2894 208.956 81.4566C208.74 81.6238 208.569 81.8424 208.458 82.0926C207.083 88.6995 204.378 94.9566 200.509 100.482C202.498 102.49 204.418 104.528 206.461 106.443C207.463 107.386 207.555 107.976 206.515 109.002C203.248 112.121 200.058 115.316 196.883 118.534C196.019 119.408 195.399 119.484 194.535 118.534C192.637 116.458 190.656 114.458 188.637 112.351C182.676 116.437 175.913 119.201 168.8 120.458C168.8 123.339 168.8 126.097 168.8 128.886C168.8 130.15 168.479 130.71 167.102 130.687C162.512 130.625 157.945 130.625 153.401 130.687C152.001 130.687 151.679 130.127 151.71 128.886C151.756 126.097 151.71 123.339 151.71 120.473ZM160.385 44.0725C144.496 44.0725 131.583 56.6999 131.529 72.3539C131.431 78.0609 133.029 83.6683 136.12 88.4633C139.211 93.2584 143.656 97.0244 148.89 99.2827C154.124 101.541 159.91 102.19 165.512 101.146C171.115 100.102 176.281 97.4134 180.354 93.4214C184.427 89.4294 187.223 84.3145 188.387 78.7269C189.55 73.1392 189.028 67.3313 186.888 62.0415C184.747 56.7516 181.084 52.2187 176.365 49.0191C171.646 45.8195 166.084 44.0977 160.385 44.0725Z" fill="#24285B" />
                    <path d="M195.315 186.912C190.87 186.098 186.65 184.343 182.937 181.763C181.729 183.035 180.489 184.277 179.326 185.594C178.722 186.269 178.301 186.192 177.705 185.594C175.731 183.582 173.727 181.595 171.692 179.633C171.11 179.066 171.195 178.698 171.73 178.17C172.992 176.944 174.193 175.664 175.356 174.477C174.316 172.454 173.161 170.469 172.296 168.347C171.619 166.618 171.074 164.841 170.667 163.029C170.491 162.355 170.231 162.186 169.603 162.202C168.073 162.202 166.543 162.202 165.013 162.202C164.248 162.202 164.026 161.926 164.034 161.198C164.034 158.342 164.034 155.484 164.034 152.624C164.034 151.858 164.317 151.628 165.036 151.643C166.566 151.643 168.157 151.681 169.718 151.643C170.009 151.643 170.483 151.344 170.544 151.114C171.412 146.933 173.122 142.972 175.57 139.475C174.293 138.219 173.046 136.939 171.745 135.728C171.156 135.184 171.172 134.824 171.745 134.28C173.785 132.293 175.813 130.281 177.827 128.242C178.378 127.683 178.768 127.691 179.296 128.242C180.482 129.537 181.721 130.794 182.945 132.074C183.886 131.499 184.659 131.009 185.462 130.541C188.254 128.927 191.294 127.787 194.458 127.17C195.131 127.039 195.391 126.802 195.361 126.074C195.292 124.542 195.361 123.086 195.361 121.584C195.361 120.856 195.606 120.596 196.348 120.603C199.239 120.634 202.129 120.634 205.015 120.603C205.818 120.603 206.056 120.917 206.04 121.668C206.04 123.392 206.04 125.124 206.04 126.963C210.478 127.77 214.689 129.526 218.387 132.112C219.634 130.809 220.874 129.56 222.052 128.281C222.625 127.66 223.031 127.698 223.582 128.281C225.555 130.296 227.552 132.296 229.587 134.25C230.207 134.847 230.145 135.215 229.587 135.782C228.34 136.97 227.154 138.226 225.861 139.537L226.879 141.146C228.72 144.081 230.016 147.326 230.704 150.724C230.865 151.551 231.201 151.712 231.951 151.681C233.374 151.628 234.804 151.681 236.235 151.681C237 151.681 237.367 151.903 237.352 152.754C237.313 155.543 237.313 158.34 237.352 161.129C237.352 161.949 237.099 162.263 236.265 162.24C234.705 162.194 233.147 162.194 231.591 162.24C231.425 162.27 231.268 162.34 231.135 162.444C231.002 162.548 230.896 162.683 230.826 162.838C229.965 166.967 228.273 170.878 225.854 174.331C227.101 175.588 228.302 176.867 229.572 178.062C230.199 178.652 230.26 179.036 229.61 179.656C227.567 181.61 225.571 183.61 223.589 185.617C223.046 186.161 222.664 186.207 222.121 185.617C220.935 184.315 219.696 183.066 218.433 181.748C214.722 184.321 210.504 186.069 206.063 186.874C206.063 188.667 206.063 190.399 206.063 192.123C206.063 192.889 205.857 193.257 205 193.249C202.146 193.203 199.285 193.203 196.432 193.249C195.56 193.249 195.361 192.897 195.376 192.115C195.338 190.422 195.315 188.698 195.315 186.912ZM200.716 139.154C197.206 139.175 193.78 140.236 190.871 142.204C187.962 144.173 185.7 146.959 184.37 150.213C183.04 153.467 182.701 157.042 183.397 160.489C184.092 163.935 185.791 167.098 188.279 169.579C190.766 172.06 193.931 173.747 197.375 174.429C200.819 175.111 204.387 174.757 207.63 173.41C210.873 172.064 213.645 169.787 215.598 166.865C217.55 163.943 218.595 160.507 218.602 156.991C218.587 152.251 216.696 147.711 213.343 144.367C209.989 141.022 205.448 139.147 200.716 139.154Z" fill="#6A994E" />
                    <path opacity="0.58" d="M166.994 201.953C166.994 201.953 160.699 200.26 159.344 194.406C159.344 194.406 169.075 192.391 169.397 202.466L166.994 201.953Z" fill="#6A994E" />
                    <path opacity="0.73" d="M167.76 201.317C167.76 201.317 163.338 194.421 167.178 187.862C167.178 187.862 174.606 192.544 171.347 201.317H167.76Z" fill="#6A994E" />
                    <path d="M168.892 201.317C168.892 201.317 171.187 193.969 178.194 192.544C178.194 192.544 179.525 197.31 173.688 201.317H168.892Z" fill="#6A994E" />
                    <path d="M164.333 201.179L165.641 209.906H173.673L174.821 201.179H164.333Z" fill="#24285B" />
                    <path opacity="0.58" d="M166.994 201.953C166.994 201.953 160.699 200.26 159.344 194.406C159.344 194.406 169.075 192.391 169.397 202.466L166.994 201.953Z" fill="#6A994E" />
                    <path opacity="0.73" d="M167.76 201.317C167.76 201.317 163.338 194.421 167.178 187.862C167.178 187.862 174.606 192.544 171.347 201.317H167.76Z" fill="#6A994E" />
                    <path d="M168.892 201.317C168.892 201.317 171.187 193.969 178.194 192.544C178.194 192.544 179.525 197.31 173.688 201.317H168.892Z" fill="#6A994E" />
                    <path d="M164.333 201.179L165.641 209.906H173.673L174.821 201.179H164.333Z" fill="#24285B" />
                    <path d="M107.019 97.2026H140.128" stroke="#FFD200" stroke-width="5.075" stroke-miterlimit="10" />
                    <path d="M107.019 121.844H140.128" stroke="#FFD200" stroke-width="5.075" stroke-miterlimit="10" />
                    <path d="M107.019 147.536H140.128" stroke="#FFD200" stroke-width="5.075" stroke-miterlimit="10" />
                    <path d="M107.019 172.178H140.128" stroke="#FFD200" stroke-width="5.075" stroke-miterlimit="10" />
                    <path d="M107.019 192.896H140.128" stroke="#FFD200" stroke-width="5.075" stroke-miterlimit="10" />
                    <path d="M107.019 32.6709V208.405" stroke="#FFD200" stroke-width="5.075" stroke-miterlimit="10" />
                    <path d="M140.128 32.6709V208.405" stroke="#FFD200" stroke-width="5.075" stroke-miterlimit="10" />
                    <path d="M80.9092 93.9766L82.8064 99.685L78.2929 102.551L76.6711 92.6587L80.9092 93.9766Z" fill="#F4A28C" />
                    <path d="M75.1258 87.1497C75.3615 86.6069 75.7289 86.1316 76.1945 85.7671C76.66 85.4025 77.2092 85.1601 77.792 85.0619C78.3748 84.9638 78.9728 85.0129 79.5319 85.2049C80.0909 85.3968 80.5933 85.7256 80.9933 86.1613C82.9135 88.2147 85.2314 91.4789 82.6075 93.2565C78.6065 95.9766 74.9575 90.8965 74.9575 90.8965C74.6409 89.6585 74.6995 88.3542 75.1258 87.1497Z" fill="#F4A28C" />
                    <path d="M78.0557 90.6435C78.0557 90.6435 77.023 89.7777 76.564 91.0036C76.105 92.2296 77.9104 92.8119 78.4535 92.1989C78.9967 91.5859 78.0557 90.6435 78.0557 90.6435Z" fill="#F4A28C" />
                    <path d="M76.9999 94.475L73.9399 91.3105C73.6244 90.9816 73.379 90.592 73.2186 90.1652C73.0582 89.7384 72.986 89.2835 73.0066 88.8279C72.9776 87.2724 73.5537 85.7667 74.6131 84.629C75.021 84.1959 75.5187 83.8577 76.0712 83.6379C76.6236 83.4182 77.2174 83.3223 77.8108 83.357C78.6924 83.5353 79.5218 83.9127 80.2359 84.4604C80.5227 84.6149 80.7814 84.817 81.0009 85.0581C81.7047 85.9852 80.3965 86.3223 79.8151 86.8204C79.1221 87.3612 78.6578 88.1436 78.5146 89.0118C78.2086 91.2185 80.2971 92.9962 76.9999 94.475Z" fill="#24285B" />
                    <path d="M82.8063 99.6853C82.8063 99.6853 105.458 90.3603 111.563 107.876C117.667 125.392 108.288 151.222 108.288 151.222H82.8063C82.8063 151.222 60.2388 117.186 78.2928 102.559L82.8063 99.6853Z" fill="#6A994E" />
                    <path d="M82.8064 151.221L87.1975 204.252H92.4607L96.2704 163.082L108.289 151.221H82.8064Z" fill="#24285B" />
                    <path d="M88.3679 204.252L88.5898 206.053C88.6628 206.659 88.9554 207.218 89.4121 207.624C89.8689 208.029 90.4582 208.252 91.0684 208.252H94.8934C95.1737 208.252 95.4474 208.166 95.677 208.005C95.9067 207.844 96.0811 207.616 96.1765 207.352C96.2719 207.088 96.2836 206.801 96.2101 206.53C96.1365 206.259 95.9812 206.017 95.7655 205.838C94.7983 205.056 93.6609 204.513 92.4454 204.252H88.3679Z" fill="#6A994E" />
                    <path d="M95.2453 108.765C92.3919 100.88 102.498 94.8808 108.006 101.195C110.152 103.762 111.758 106.739 112.726 109.945C118.524 127.568 119.894 137.728 138.843 138.119V143.789C138.843 143.789 113.445 147.674 101.534 123.239C99.185 118.528 97.086 113.697 95.2453 108.765Z" fill="#6A994E" />
                    <path opacity="0.46" d="M95.2453 108.765C92.3919 100.88 102.498 94.8808 108.006 101.195C110.152 103.762 111.758 106.739 112.726 109.945C118.524 127.568 119.894 137.728 138.843 138.119V143.789C138.843 143.789 113.445 147.674 101.534 123.239C99.185 118.528 97.086 113.697 95.2453 108.765Z" fill="white" />
                    <path d="M138.843 139.483C138.843 139.483 143.639 138.402 144.687 141.529C145.735 144.655 138.843 143.789 138.843 143.789V139.483Z" fill="#F4A28C" />
                    <path d="M108.288 151.221C108.288 151.221 123.137 149.16 127.819 157.351C132.501 165.542 120.528 187.87 120.528 187.87L115.173 186.169C115.173 186.169 124.461 165.059 111.226 162.416C109.704 162.138 108.141 162.18 106.636 162.538L92.4453 165.695L94.7403 151.735L108.288 151.221Z" fill="#24285B" />
                    <path d="M116.78 186.682L116.459 187.839C116.346 188.246 116.34 188.675 116.442 189.084C116.544 189.494 116.75 189.87 117.04 190.176L117.415 190.575C117.643 190.815 117.917 191.007 118.22 191.138C118.524 191.27 118.851 191.339 119.182 191.341H122.364C122.569 191.339 122.768 191.277 122.937 191.163C123.106 191.048 123.237 190.886 123.314 190.696C123.391 190.507 123.41 190.299 123.369 190.099C123.328 189.898 123.229 189.715 123.084 189.571C122.33 188.865 121.461 188.294 120.513 187.885L116.78 186.682Z" fill="#6A994E" />
                    <path d="M107.019 47.9268H140.128" stroke="#FFD200" stroke-width="5.075" stroke-miterlimit="10" />
                    <path d="M107.019 72.5684H140.128" stroke="#FFD200" stroke-width="5.075" stroke-miterlimit="10" />
                    <path d="M72.9838 90.9347L82.5157 85.6477L80.9398 85.0577C80.9398 85.0577 78.9049 80.8588 75.929 81.4412C72.9532 82.0235 69.503 85.3566 72.9838 90.9347Z" fill="#6A994E" />
                    <path d="M270.025 93.9692H224.905V123.086H270.025V93.9692Z" fill="#E6E6E6" />
                    <path d="M270.025 82.9429H224.905V93.9689H270.025V82.9429Z" fill="#CCCCCC" />
                    <path d="M261.625 104.336H233.695C232.077 104.336 230.765 105.65 230.765 107.271C230.765 108.891 232.077 110.205 233.695 110.205H261.625C263.243 110.205 264.555 108.891 264.555 107.271C264.555 105.65 263.243 104.336 261.625 104.336Z" fill="#CCCCCC" />
                    <path d="M239.685 112.359C242.49 112.359 244.764 110.081 244.764 107.271C244.764 104.461 242.49 102.183 239.685 102.183C236.879 102.183 234.605 104.461 234.605 107.271C234.605 110.081 236.879 112.359 239.685 112.359Z" fill="#FFD200" />
                </svg>