<svg width="36" height="36" viewBox="0 0 36 36" fill="none" xmlns="http://www.w3.org/2000/svg">
<rect width="36" height="36" rx="18" fill="#6A994E"/>
<path d="M22 18H21.9911M18 18H17.9911M14 18H13.9911M18 26C13.5817 26 10 22.4183 10 18C10 13.5817 13.5817 10 18 10C22.4183 10 26 13.5817 26 18C26 19.0641 25.7922 20.0797 25.4151 21.0085C25.3429 21.1862 25.3068 21.2751 25.2907 21.3469C25.2749 21.4172 25.2692 21.4692 25.2691 21.5412C25.2691 21.6148 25.2825 21.695 25.3092 21.8554L25.8363 25.018C25.8915 25.3492 25.9191 25.5148 25.8678 25.6345C25.8228 25.7393 25.7393 25.8228 25.6345 25.8678C25.5148 25.9191 25.3492 25.8915 25.018 25.8363L21.8554 25.3092C21.695 25.2825 21.6148 25.2691 21.5412 25.2691C21.4692 25.2692 21.4172 25.2749 21.3469 25.2907C21.2751 25.3068 21.1862 25.3429 21.0085 25.4151C20.0797 25.7922 19.0641 26 18 26ZM21.5556 18C21.5556 18.2455 21.7545 18.4444 22 18.4444C22.2455 18.4444 22.4444 18.2455 22.4444 18C22.4444 17.7545 22.2455 17.5556 22 17.5556C21.7545 17.5556 21.5556 17.7545 21.5556 18ZM17.5556 18C17.5556 18.2455 17.7545 18.4444 18 18.4444C18.2455 18.4444 18.4444 18.2455 18.4444 18C18.4444 17.7545 18.2455 17.5556 18 17.5556C17.7545 17.5556 17.5556 17.7545 17.5556 18ZM13.5556 18C13.5556 18.2455 13.7545 18.4444 14 18.4444C14.2455 18.4444 14.4444 18.2455 14.4444 18C14.4444 17.7545 14.2455 17.5556 14 17.5556C13.7545 17.5556 13.5556 17.7545 13.5556 18Z" stroke="white" stroke-linecap="round" stroke-linejoin="round"/>
</svg>
