<svg width="242" height="229" viewBox="0 0 242 229" fill="none" xmlns="http://www.w3.org/2000/svg">
<path d="M142.5 24.9624C141.337 15.4575 141.5 0.462445 141.5 0.462445C141.5 0.462445 136.152 -0.578056 133 0.462445C128.011 2.10935 125.5 6.46245 124 10.4624C122.8 13.6624 123.833 24.4624 124.5 29.4624L127.5 59.9624C130.167 59.7958 136.5 58.8624 140.5 56.4624C145.5 53.4624 147 48.4624 147 47.4624C147 46.4624 143.588 33.857 142.5 24.9624Z" fill="white"/>
<path d="M198.5 13.9624C190.1 13.1624 183.944 20.9803 179.5 29.4624C177.147 33.9528 176 41.9624 176 41.9624C176 41.9624 172.667 58.4624 172 64.4624C174.5 64.7958 181.3 63.7624 188.5 56.9624C195.7 50.1624 197.5 43.1291 197.5 40.4624C197.833 34.2958 198.5 20.3624 198.5 13.9624Z" fill="white"/>
<path d="M255.5 57.4624C232.7 58.2624 213.667 78.4624 207 88.4624C205 90.4624 209.586 90.2772 211.5 90.4624C213.958 90.7004 215.519 86.9873 217.5 88.4624C219.542 89.983 217 92.9624 217 94.9624C217 97.4624 222.5 96.4624 222.5 96.4624C222.5 96.4624 248.167 74.9624 254.5 72.9624C254.833 72.6291 255.5 69.0624 255.5 57.4624Z" fill="white"/>
<path d="M221 129.962C228 122.629 248.3 111.162 273.5 123.962C305 139.962 207.5 149.462 221 129.962Z" fill="white"/>
<path d="M222.5 174.462C216.1 170.062 205.833 172.629 201.5 174.462C201.5 178.462 205.338 185.14 210 190.462C218.464 200.127 233 200.462 240 203.962C245.6 206.762 248 209.129 248.5 209.962L258 191.962C256.333 191.629 252 190.862 248 190.462C243 189.962 230.5 179.962 222.5 174.462Z" fill="white"/>
<path d="M166 232.962C168 216.962 161.167 212.296 157.5 211.962C149.5 214.362 150.074 221.968 148 229.462C144.318 242.77 147.8 268.862 153 264.462C159.5 258.962 163.5 252.962 166 232.962Z" fill="white"/>
<path d="M112 203.962C101.385 195.218 91.6579 214.219 84.5 225.962C81.7244 230.516 82.6 234.062 79 238.462C74.5 243.962 73.5 260.462 75 260.962C76.5 261.462 78 261.462 85 257.462C92 253.462 90.7964 243.61 95 234.962C101.036 222.545 122.657 212.741 112 203.962Z" fill="white"/>
<path d="M52 178.962C32 178.962 19.3333 191.962 15.5 198.462C11.6667 204.962 20.5 201.462 20.5 201.462C16.6667 203.796 10.1 208.962 14.5 210.962C20 213.462 55.5 197.462 70 189.462C81.6 183.062 75.5 172.962 75.5 172.962C75.5 172.962 72 178.962 52 178.962Z" fill="white"/>
<path d="M15.5 116.462C14.3 118.462 4.66667 127.962 0 132.462C11.1667 135.796 36.2 142.562 47 142.962C60.5 143.462 61.5 135.462 59.5 127.962C57.5 120.462 17 113.962 15.5 116.462Z" fill="white"/>
<path d="M17.5 59.9624C33.3333 58.2958 65.9 64.2625 69.5 101.462C44 92.9624 25 90.4624 17.5 59.9624Z" fill="white"/>
<path d="M83.5 15.4624C81.5 15.8624 68.5 21.4624 68.5 21.4624C68.5 21.4624 70.2463 40.2775 76 50.4625C83.0032 62.8592 98.5 78.4625 103 74.9625C106.6 72.1625 105.335 62.446 104.5 54.4624C102.701 37.2581 85.5 15.0624 83.5 15.4624Z" fill="white"/>
<path d="M192.5 84.9624C181.668 74.4311 172.868 70.1434 158 67.4624C141.286 64.4485 130.591 67.2283 115 73.9624C103.764 78.8155 89 91.4624 89 91.4624C89 91.4624 73.341 107.035 69.5 119.962C65.0384 134.978 66.1266 145.653 72.5 159.962C79.8063 176.367 89.7069 183.912 106 191.462C114.981 195.625 130.5 197.962 130.5 197.962C130.5 197.962 152.504 198.912 165.5 194.462C181.285 189.058 190.823 183.554 200.5 169.962C210.692 155.649 213.526 143.967 212 126.462C210.445 108.623 205.339 97.4452 192.5 84.9624Z" fill="white"/>
<path d="M157 89.9625C147.002 86.5613 140.389 86.5661 130 88.4625C117.027 90.8304 107.844 93.362 100 103.962C94.6007 111.259 92.5 125.962 92.5 125.962C92.5 125.962 91.9829 145.13 98 154.962C103.13 163.345 108.152 167.185 117 171.462C128.318 176.934 149 174.962 149 174.962C149 174.962 170.233 175.269 180.5 167.962C187.979 162.64 195 149.462 195 149.462C195 149.462 196.325 136.04 194 127.962C191.109 117.917 179.5 105.462 179.5 105.462C179.5 105.462 167.101 93.3989 157 89.9625Z" fill="#6A994E"/>
</svg>
